<?xml version="1.0" encoding="UTF-8" standalone="no"?>
<!DOCTYPE svg PUBLIC "-//W3C//DTD SVG 1.1//EN"
 "http://www.w3.org/Graphics/SVG/1.1/DTD/svg11.dtd">
<!-- Generated by graphviz version 2.28.0 (20110507.0327)
 -->
<!-- Title: G Pages: 1 -->
<svg width="672pt" height="312pt"
 viewBox="0.00 0.00 672.00 312.00" xmlns="http://www.w3.org/2000/svg" xmlns:xlink="http://www.w3.org/1999/xlink">
<g id="graph1" class="graph" transform="scale(1 1) rotate(0) translate(4 308)">
<title>G</title>
<polygon fill="white" stroke="white" points="-4,5 -4,-308 669,-308 669,5 -4,5"/>
<g id="graph2" class="cluster"><title>cluster_global</title>
<polyline fill="none" stroke="gray" points="332,-8 644,-8 "/>
<path fill="none" stroke="gray" d="M644,-8C650,-8 656,-14 656,-20"/>
<polyline fill="none" stroke="gray" points="656,-20 656,-284 "/>
<path fill="none" stroke="gray" d="M656,-284C656,-290 650,-296 644,-296"/>
<polyline fill="none" stroke="gray" points="644,-296 332,-296 "/>
<path fill="none" stroke="gray" d="M332,-296C326,-296 320,-290 320,-284"/>
<polyline fill="none" stroke="gray" points="320,-284 320,-20 "/>
<path fill="none" stroke="gray" d="M320,-20C320,-14 326,-8 332,-8"/>
<text text-anchor="middle" x="488" y="-283.2" font-family="Times New Roman,serif" font-size="11.00" fill="gray">global</text>
</g>
<!-- \\backup_ejsappbooking_activity_task -->
<g id="node2" class="node"><title>\\backup_ejsappbooking_activity_task</title>
<a xlink:href="backup.moodle2.backup_ejsappbooking_activity_task.class.html" xlink:title="backup_ejsappbooking_activity_task" target="_parent">
<polygon fill="none" stroke="black" points="611,-268 365,-268 365,-232 611,-232 611,-268"/>
<text text-anchor="middle" x="488" y="-247.2" font-family="Courier,monospace" font-size="11.00">backup_ejsappbooking_activity_task</text>
</a>
</g>
<!-- \\backup_activity_task -->
<g id="node8" class="node"><title>\\backup_activity_task</title>
<ellipse fill="none" stroke="black" cx="128" cy="-250" rx="90.1842" ry="18"/>
<text text-anchor="middle" x="128" y="-246.3" font-family="Times New Roman,serif" font-size="14.00" fill="gray">\backup_activity_task</text>
</g>
<!-- \\backup_ejsappbooking_activity_task&#45;&gt;\\backup_activity_task -->
<g id="edge3" class="edge"><title>\\backup_ejsappbooking_activity_task&#45;&gt;\\backup_activity_task</title>
<path fill="none" stroke="black" d="M364.798,-250C320.355,-250 270.7,-250 228.462,-250"/>
<polygon fill="none" stroke="black" points="228.453,-246.5 218.453,-250 228.453,-253.5 228.453,-246.5"/>
</g>
<!-- \\backup_ejsappbooking_activity_structure_step -->
<g id="node3" class="node"><title>\\backup_ejsappbooking_activity_structure_step</title>
<a xlink:href="backup.moodle2.backup_ejsappbooking_stepslib.html" xlink:title="backup_ejsappbooking_activity_structure_step" target="_parent">
<polygon fill="none" stroke="black" points="645,-214 331,-214 331,-178 645,-178 645,-214"/>
<text text-anchor="middle" x="488" y="-193.2" font-family="Courier,monospace" font-size="11.00">backup_ejsappbooking_activity_structure_step</text>
</a>
</g>
<!-- \\backup_activity_structure_step -->
<g id="node10" class="node"><title>\\backup_activity_structure_step</title>
<ellipse fill="none" stroke="black" cx="128" cy="-196" rx="127.277" ry="18"/>
<text text-anchor="middle" x="128" y="-192.3" font-family="Times New Roman,serif" font-size="14.00" fill="gray">\backup_activity_structure_step</text>
</g>
<!-- \\backup_ejsappbooking_activity_structure_step&#45;&gt;\\backup_activity_structure_step -->
<g id="edge5" class="edge"><title>\\backup_ejsappbooking_activity_structure_step&#45;&gt;\\backup_activity_structure_step</title>
<path fill="none" stroke="black" d="M330.757,-196C309.057,-196 286.904,-196 265.601,-196"/>
<polygon fill="none" stroke="black" points="265.549,-192.5 255.549,-196 265.549,-199.5 265.549,-192.5"/>
</g>
<!-- \\restore_ejsappbooking_activity_task -->
<g id="node4" class="node"><title>\\restore_ejsappbooking_activity_task</title>
<a xlink:href="backup.moodle2.restore_ejsappbooking_activity_task.class.html" xlink:title="restore_ejsappbooking_activity_task" target="_parent">
<polygon fill="none" stroke="black" points="614.5,-160 361.5,-160 361.5,-124 614.5,-124 614.5,-160"/>
<text text-anchor="middle" x="488" y="-139.2" font-family="Courier,monospace" font-size="11.00">restore_ejsappbooking_activity_task</text>
</a>
</g>
<!-- \\restore_activity_task -->
<g id="node12" class="node"><title>\\restore_activity_task</title>
<ellipse fill="none" stroke="black" cx="128" cy="-142" rx="88.2844" ry="18"/>
<text text-anchor="middle" x="128" y="-138.3" font-family="Times New Roman,serif" font-size="14.00" fill="gray">\restore_activity_task</text>
</g>
<!-- \\restore_ejsappbooking_activity_task&#45;&gt;\\restore_activity_task -->
<g id="edge7" class="edge"><title>\\restore_ejsappbooking_activity_task&#45;&gt;\\restore_activity_task</title>
<path fill="none" stroke="black" d="M361.286,-142C317.081,-142 268.105,-142 226.566,-142"/>
<polygon fill="none" stroke="black" points="226.449,-138.5 216.449,-142 226.449,-145.5 226.449,-138.5"/>
</g>
<!-- \\restore_ejsappbooking_activity_structure_step -->
<g id="node5" class="node"><title>\\restore_ejsappbooking_activity_structure_step</title>
<a xlink:href="backup.moodle2.restore_ejsappbooking_stepslib.html" xlink:title="restore_ejsappbooking_activity_structure_step" target="_parent">
<polygon fill="none" stroke="black" points="648,-106 328,-106 328,-70 648,-70 648,-106"/>
<text text-anchor="middle" x="488" y="-85.2" font-family="Courier,monospace" font-size="11.00">restore_ejsappbooking_activity_structure_step</text>
</a>
</g>
<!-- \\restore_activity_structure_step -->
<g id="node14" class="node"><title>\\restore_activity_structure_step</title>
<ellipse fill="none" stroke="black" cx="128" cy="-88" rx="125.378" ry="18"/>
<text text-anchor="middle" x="128" y="-84.3" font-family="Times New Roman,serif" font-size="14.00" fill="gray">\restore_activity_structure_step</text>
</g>
<!-- \\restore_ejsappbooking_activity_structure_step&#45;&gt;\\restore_activity_structure_step -->
<g id="edge9" class="edge"><title>\\restore_ejsappbooking_activity_structure_step&#45;&gt;\\restore_activity_structure_step</title>
<path fill="none" stroke="black" d="M327.891,-88C306.467,-88 284.657,-88 263.711,-88"/>
<polygon fill="none" stroke="black" points="263.503,-84.5001 253.503,-88 263.503,-91.5001 263.503,-84.5001"/>
</g>
<!-- \\mod_ejsappbooking_mod_form -->
<g id="node6" class="node"><title>\\mod_ejsappbooking_mod_form</title>
<a xlink:href="mod_form.html" xlink:title="mod_ejsappbooking_mod_form" target="_parent">
<polygon fill="none" stroke="black" points="584,-52 392,-52 392,-16 584,-16 584,-52"/>
<text text-anchor="middle" x="488" y="-31.2" font-family="Courier,monospace" font-size="11.00">mod_ejsappbooking_mod_form</text>
</a>
</g>
<!-- \\moodleform_mod -->
<g id="node16" class="node"><title>\\moodleform_mod</title>
<ellipse fill="none" stroke="black" cx="128" cy="-34" rx="79.0865" ry="18"/>
<text text-anchor="middle" x="128" y="-30.3" font-family="Times New Roman,serif" font-size="14.00" fill="gray">\moodleform_mod</text>
</g>
<!-- \\mod_ejsappbooking_mod_form&#45;&gt;\\moodleform_mod -->
<g id="edge11" class="edge"><title>\\mod_ejsappbooking_mod_form&#45;&gt;\\moodleform_mod</title>
<path fill="none" stroke="black" d="M391.533,-34C337.436,-34 270.218,-34 217.341,-34"/>
<polygon fill="none" stroke="black" points="217.304,-30.5001 207.304,-34 217.304,-37.5001 217.304,-30.5001"/>
</g>
</g>
</svg>
