<?xml version="1.0" encoding="UTF-8" standalone="no"?>
<!DOCTYPE svg PUBLIC "-//W3C//DTD SVG 1.1//EN"
 "http://www.w3.org/Graphics/SVG/1.1/DTD/svg11.dtd">
<!-- Generated by graphviz version 2.38.0 (20140413.2041)
 -->
<!-- Title: G Pages: 1 -->
<svg width="793pt" height="482pt"
 viewBox="0.00 0.00 792.97 482.00" xmlns="http://www.w3.org/2000/svg" xmlns:xlink="http://www.w3.org/1999/xlink">
<g id="graph0" class="graph" transform="scale(1 1) rotate(0) translate(4 478)">
<title>G</title>
<polygon fill="white" stroke="none" points="-4,4 -4,-478 788.967,-478 788.967,4 -4,4"/>
<g id="clust1" class="cluster"><title>cluster_Global</title>
<path fill="none" stroke="gray" d="M452.967,-8C452.967,-8 764.967,-8 764.967,-8 770.967,-8 776.967,-14 776.967,-20 776.967,-20 776.967,-454 776.967,-454 776.967,-460 770.967,-466 764.967,-466 764.967,-466 452.967,-466 452.967,-466 446.967,-466 440.967,-460 440.967,-454 440.967,-454 440.967,-20 440.967,-20 440.967,-14 446.967,-8 452.967,-8"/>
<text text-anchor="middle" x="608.967" y="-453.2" font-family="Times New Roman,serif" font-size="11.00" fill="gray">Global</text>
</g>
<g id="clust2" class="cluster"><title>cluster_\mod_ejsappbooking</title>
<path fill="none" stroke="gray" d="M481.967,-276C481.967,-276 735.967,-276 735.967,-276 741.967,-276 747.967,-282 747.967,-288 747.967,-288 747.967,-426 747.967,-426 747.967,-432 741.967,-438 735.967,-438 735.967,-438 481.967,-438 481.967,-438 475.967,-438 469.967,-432 469.967,-426 469.967,-426 469.967,-288 469.967,-288 469.967,-282 475.967,-276 481.967,-276"/>
<text text-anchor="middle" x="608.967" y="-425.2" font-family="Times New Roman,serif" font-size="11.00" fill="gray">mod_ejsappbooking</text>
</g>
<g id="clust3" class="cluster"><title>cluster_\mod_ejsappbooking\event</title>
<path fill="none" stroke="gray" d="M489.967,-284C489.967,-284 727.967,-284 727.967,-284 733.967,-284 739.967,-290 739.967,-296 739.967,-296 739.967,-398 739.967,-398 739.967,-404 733.967,-410 727.967,-410 727.967,-410 489.967,-410 489.967,-410 483.967,-410 477.967,-404 477.967,-398 477.967,-398 477.967,-296 477.967,-296 477.967,-290 483.967,-284 489.967,-284"/>
<text text-anchor="middle" x="608.967" y="-397.2" font-family="Times New Roman,serif" font-size="11.00" fill="gray">event</text>
</g>
<!-- \\mod_ejsappbooking\\event\\course_module_instance_list_viewed -->
<g id="node1" class="node"><title>\\mod_ejsappbooking\\event\\course_module_instance_list_viewed</title>
<polygon fill="none" stroke="black" points="731.967,-382 485.967,-382 485.967,-346 731.967,-346 731.967,-382"/>
<text text-anchor="middle" x="608.967" y="-361.2" font-family="Courier,monospace" font-size="11.00">course_module_instance_list_viewed</text>
</g>
<!-- \\core\\event\\course_module_instance_list_viewed -->
<g id="node9" class="node"><title>\\core\\event\\course_module_instance_list_viewed</title>
<ellipse fill="none" stroke="black" cx="188.483" cy="-364" rx="188.467" ry="18"/>
<text text-anchor="middle" x="188.483" y="-360.3" font-family="Times New Roman,serif" font-size="14.00" fill="gray">\core\event\course_module_instance_list_viewed</text>
</g>
<!-- \\mod_ejsappbooking\\event\\course_module_instance_list_viewed&#45;&gt;\\core\\event\\course_module_instance_list_viewed -->
<g id="edge2" class="edge"><title>\\mod_ejsappbooking\\event\\course_module_instance_list_viewed&#45;&gt;\\core\\event\\course_module_instance_list_viewed</title>
<path fill="none" stroke="black" d="M485.799,-364C454.971,-364 421.075,-364 387.561,-364"/>
<polygon fill="none" stroke="black" points="387.177,-360.5 377.177,-364 387.177,-367.5 387.177,-360.5"/>
</g>
<!-- \\mod_ejsappbooking\\event\\course_module_viewed -->
<g id="node2" class="node"><title>\\mod_ejsappbooking\\event\\course_module_viewed</title>
<polygon fill="none" stroke="black" points="684.967,-328 532.967,-328 532.967,-292 684.967,-292 684.967,-328"/>
<text text-anchor="middle" x="608.967" y="-307.2" font-family="Courier,monospace" font-size="11.00">course_module_viewed</text>
</g>
<!-- \\core\\event\\course_module_viewed -->
<g id="node12" class="node"><title>\\core\\event\\course_module_viewed</title>
<ellipse fill="none" stroke="black" cx="188.483" cy="-310" rx="139.976" ry="18"/>
<text text-anchor="middle" x="188.483" y="-306.3" font-family="Times New Roman,serif" font-size="14.00" fill="gray">\core\event\course_module_viewed</text>
</g>
<!-- \\mod_ejsappbooking\\event\\course_module_viewed&#45;&gt;\\core\\event\\course_module_viewed -->
<g id="edge5" class="edge"><title>\\mod_ejsappbooking\\event\\course_module_viewed&#45;&gt;\\core\\event\\course_module_viewed</title>
<path fill="none" stroke="black" d="M532.667,-310C478.724,-310 404.291,-310 338.53,-310"/>
<polygon fill="none" stroke="black" points="338.474,-306.5 328.474,-310 338.474,-313.5 338.474,-306.5"/>
</g>
<!-- \\restore_ejsappbooking_activity_structure_step -->
<g id="node3" class="node"><title>\\restore_ejsappbooking_activity_structure_step</title>
<polygon fill="none" stroke="black" points="768.967,-268 448.967,-268 448.967,-232 768.967,-232 768.967,-268"/>
<text text-anchor="middle" x="608.967" y="-247.2" font-family="Courier,monospace" font-size="11.00">restore_ejsappbooking_activity_structure_step</text>
</g>
<!-- \\restore_activity_structure_step -->
<g id="node8" class="node"><title>\\restore_activity_structure_step</title>
<ellipse fill="none" stroke="black" cx="188.483" cy="-250" rx="125.378" ry="18"/>
<text text-anchor="middle" x="188.483" y="-246.3" font-family="Times New Roman,serif" font-size="14.00" fill="gray">\restore_activity_structure_step</text>
</g>
<!-- \\restore_ejsappbooking_activity_structure_step&#45;&gt;\\restore_activity_structure_step -->
<g id="edge1" class="edge"><title>\\restore_ejsappbooking_activity_structure_step&#45;&gt;\\restore_activity_structure_step</title>
<path fill="none" stroke="black" d="M448.861,-250C407.743,-250 363.88,-250 324.145,-250"/>
<polygon fill="none" stroke="black" points="324.136,-246.5 314.136,-250 324.136,-253.5 324.136,-246.5"/>
</g>
<!-- \\mod_ejsappbooking_mod_form -->
<g id="node4" class="node"><title>\\mod_ejsappbooking_mod_form</title>
<polygon fill="none" stroke="black" points="704.967,-214 512.967,-214 512.967,-178 704.967,-178 704.967,-214"/>
<text text-anchor="middle" x="608.967" y="-193.2" font-family="Courier,monospace" font-size="11.00">mod_ejsappbooking_mod_form</text>
</g>
<!-- \\moodleform_mod -->
<g id="node10" class="node"><title>\\moodleform_mod</title>
<ellipse fill="none" stroke="black" cx="188.483" cy="-196" rx="79.0865" ry="18"/>
<text text-anchor="middle" x="188.483" y="-192.3" font-family="Times New Roman,serif" font-size="14.00" fill="gray">\moodleform_mod</text>
</g>
<!-- \\mod_ejsappbooking_mod_form&#45;&gt;\\moodleform_mod -->
<g id="edge3" class="edge"><title>\\mod_ejsappbooking_mod_form&#45;&gt;\\moodleform_mod</title>
<path fill="none" stroke="black" d="M512.745,-196C442.314,-196 347.071,-196 278.228,-196"/>
<polygon fill="none" stroke="black" points="277.841,-192.5 267.841,-196 277.841,-199.5 277.841,-192.5"/>
</g>
<!-- \\backup_ejsappbooking_activity_structure_step -->
<g id="node5" class="node"><title>\\backup_ejsappbooking_activity_structure_step</title>
<polygon fill="none" stroke="black" points="765.967,-160 451.967,-160 451.967,-124 765.967,-124 765.967,-160"/>
<text text-anchor="middle" x="608.967" y="-139.2" font-family="Courier,monospace" font-size="11.00">backup_ejsappbooking_activity_structure_step</text>
</g>
<!-- \\backup_activity_structure_step -->
<g id="node11" class="node"><title>\\backup_activity_structure_step</title>
<ellipse fill="none" stroke="black" cx="188.483" cy="-142" rx="127.277" ry="18"/>
<text text-anchor="middle" x="188.483" y="-138.3" font-family="Times New Roman,serif" font-size="14.00" fill="gray">\backup_activity_structure_step</text>
</g>
<!-- \\backup_ejsappbooking_activity_structure_step&#45;&gt;\\backup_activity_structure_step -->
<g id="edge4" class="edge"><title>\\backup_ejsappbooking_activity_structure_step&#45;&gt;\\backup_activity_structure_step</title>
<path fill="none" stroke="black" d="M451.841,-142C410.515,-142 366.229,-142 326.031,-142"/>
<polygon fill="none" stroke="black" points="325.903,-138.5 315.903,-142 325.903,-145.5 325.903,-138.5"/>
</g>
<!-- \\restore_ejsappbooking_activity_task -->
<g id="node6" class="node"><title>\\restore_ejsappbooking_activity_task</title>
<polygon fill="none" stroke="black" points="735.467,-106 482.467,-106 482.467,-70 735.467,-70 735.467,-106"/>
<text text-anchor="middle" x="608.967" y="-85.2" font-family="Courier,monospace" font-size="11.00">restore_ejsappbooking_activity_task</text>
</g>
<!-- \\restore_activity_task -->
<g id="node13" class="node"><title>\\restore_activity_task</title>
<ellipse fill="none" stroke="black" cx="188.483" cy="-88" rx="88.2844" ry="18"/>
<text text-anchor="middle" x="188.483" y="-84.3" font-family="Times New Roman,serif" font-size="14.00" fill="gray">\restore_activity_task</text>
</g>
<!-- \\restore_ejsappbooking_activity_task&#45;&gt;\\restore_activity_task -->
<g id="edge6" class="edge"><title>\\restore_ejsappbooking_activity_task&#45;&gt;\\restore_activity_task</title>
<path fill="none" stroke="black" d="M482.408,-88C419.95,-88 345.582,-88 287.409,-88"/>
<polygon fill="none" stroke="black" points="287.112,-84.5001 277.112,-88 287.111,-91.5001 287.112,-84.5001"/>
</g>
<!-- \\backup_ejsappbooking_activity_task -->
<g id="node7" class="node"><title>\\backup_ejsappbooking_activity_task</title>
<polygon fill="none" stroke="black" points="731.967,-52 485.967,-52 485.967,-16 731.967,-16 731.967,-52"/>
<text text-anchor="middle" x="608.967" y="-31.2" font-family="Courier,monospace" font-size="11.00">backup_ejsappbooking_activity_task</text>
</g>
<!-- \\backup_activity_task -->
<g id="node14" class="node"><title>\\backup_activity_task</title>
<ellipse fill="none" stroke="black" cx="188.483" cy="-34" rx="90.1842" ry="18"/>
<text text-anchor="middle" x="188.483" y="-30.3" font-family="Times New Roman,serif" font-size="14.00" fill="gray">\backup_activity_task</text>
</g>
<!-- \\backup_ejsappbooking_activity_task&#45;&gt;\\backup_activity_task -->
<g id="edge7" class="edge"><title>\\backup_ejsappbooking_activity_task&#45;&gt;\\backup_activity_task</title>
<path fill="none" stroke="black" d="M485.799,-34C423.197,-34 347.938,-34 288.932,-34"/>
<polygon fill="none" stroke="black" points="288.86,-30.5001 278.86,-34 288.86,-37.5001 288.86,-30.5001"/>
</g>
</g>
</svg>
