<?xml version="1.0" encoding="utf-8"?>
<!-- Generator: Adobe Illustrator 13.0.1, SVG Export Plug-In . SVG Version: 6.00 Build 14948)  -->
<!DOCTYPE svg PUBLIC "-//W3C//DTD SVG 1.1//EN" "http://www.w3.org/Graphics/SVG/1.1/DTD/svg11.dtd" [
	<!ENTITY st0 "fill:#FFB51F;">
	<!ENTITY st1 "fill:#FFFFFF;">
	<!ENTITY st2 "fill:#00563F;">
]>
<svg version="1.1" id="Capa_1" xmlns="http://www.w3.org/2000/svg" xmlns:xlink="http://www.w3.org/1999/xlink" x="0px" y="0px"
	 width="24px" height="24px" viewBox="0 0 24 24" style="enable-background:new 0 0 24 24;" xml:space="preserve">
<g>
	<rect x="-0.5" y="-0.5" style="&st2;" width="24" height="6.5"/>
</g>
<rect x="-0.5" y="7.6" style="&st2;" width="24" height="15.9"/>
<rect x="11.9" y="9.2" style="&st1;" width="4.6" height="2.6"/>
<rect x="17.4" y="9.2" style="&st0;" width="4.6" height="2.6"/>
<rect x="0.8" y="12.5" style="&st1;" width="4.6" height="2.6"/>
<rect x="6.4" y="12.5" style="&st0;" width="4.6" height="2.6"/>
<rect x="11.9" y="12.5" style="&st1;" width="4.6" height="2.6"/>
<rect x="17.4" y="12.5" style="&st1;" width="4.6" height="2.6"/>
<rect x="0.9" y="15.9" style="&st1;" width="4.6" height="2.6"/>
<rect x="6.5" y="15.9" style="&st1;" width="4.6" height="2.6"/>
<rect x="11.9" y="15.9" style="&st1;" width="4.6" height="2.6"/>
<rect x="17.5" y="15.9" style="&st1;" width="4.6" height="2.6"/>
<rect x="0.9" y="19.3" style="&st1;" width="4.6" height="2.6"/>
<rect x="6.5" y="19.3" style="&st1;" width="4.6" height="2.6"/>
<rect x="12" y="19.3" style="&st0;" width="4.6" height="2.6"/>
</svg>
