<?xml version="1.0" standalone="no"?>
<!DOCTYPE svg PUBLIC "-//W3C//DTD SVG 20010904//EN"
 "http://www.w3.org/TR/2001/REC-SVG-20010904/DTD/svg10.dtd">
<svg version="1.0" xmlns="http://www.w3.org/2000/svg"
 width="24.000000pt" height="22.000000pt" viewBox="0 0 24.000000 22.000000"
 preserveAspectRatio="xMidYMid meet">
<metadata>
Created by potrace 1.10, written by Peter Selinger 2001-2011
</metadata>
<g transform="translate(0.000000,22.000000) scale(0.100000,-0.100000)"
fill="#000000" stroke="none">
<path d="M4 207 c-2 -7 -3 -56 -2 -108 l3 -94 89 -3 89 -3 -7 58 c-4 31 -11
60 -17 63 -5 4 -1 14 11 25 20 18 20 18 20 -33 0 -49 1 -52 25 -52 26 0 26 0
23 78 l-3 77 -113 3 c-87 2 -114 0 -118 -11z"/>
</g>
</svg>
